<svg xmlns="http://www.w3.org/2000/svg" width="120" height="120" viewBox="0 0 64 64" id="data-aqi"><g><path fill="#dfddde" d="M29.236,48.9a2.014,2.014,0,0,0-1.129.192,15.33,15.33,0,0,0-2.972,2.477c-2.975,2.508-6.788,2.2-10.283,1.585-2.725-.483-5.608-1.214-7.61-3.713-1.619-2.02-2.423-4.912-3.078-7.728a26.478,26.478,0,0,1-.895-9.405C3.9,27.617,6.63,24.023,8.843,20.27c2.115-3.586,3.878-7.611,6.5-10.554A15.907,15.907,0,0,1,26.052,4.4,18.777,18.777,0,0,1,40.735,9.272c1.633,1.586,3.053,3.562,4.794,4.933,3.425,2.7,7.515,2.74,10.267,6.912a27.038,27.038,0,0,1,3.222,7.816,28.507,28.507,0,0,1,1.168,9.341,21.6,21.6,0,0,1-3.41,9.977c-2.928,4.6-6.974,8.618-11.552,9.5-4.533.875-9.289-1.376-12.574-5.608C31.638,50.842,30.623,49.086,29.236,48.9Z"></path><path fill="#1a7f75" d="M60,53.28a2.511,2.511,0,0,1-3.63,3.47L45.16,44.79l3.64-3.47Z"></path><path fill="#fff" d="M39.52,35.13a3.144,3.144,0,0,0,1.12-2.41,3.18,3.18,0,1,0-3.18,3.18A3.12,3.12,0,0,0,39.52,35.13ZM28.56,34.12h3.36l.04-.01-.44-1.18-1.18-3.17-1.29,3.17ZM47.42,23.79a13.532,13.532,0,0,1-.44,19.09,14.7,14.7,0,0,1-2.15,1.68c-.14.09-.28.17-.43.25a13.626,13.626,0,0,1-10.64,1.24,13.509,13.509,0,0,1-9.6-13.12,12.844,12.844,0,0,1,.55-3.64,13.526,13.526,0,0,1,9.05-9.1,13.719,13.719,0,0,1,3.7-.57,13.473,13.473,0,0,1,6.94,1.82c.15.08.29.16.43.25A13.474,13.474,0,0,1,47.42,23.79Z"></path><path fill="#6d6d6d" d="M37.46,51.56v4.16a4.91,4.91,0,0,1-4.91,4.9H20.51V57.9a1.855,1.855,0,0,0,0-3.71V51.56H37.46Z"></path><path fill="#fff" d="M37.46,46.61v4.95H3.48V10.51H37.46v9.11a13.719,13.719,0,0,0-3.7.57V14.24H7.12V29.29H24.71a12.844,12.844,0,0,0-.55,3.64H7.12V47.98H33.76V46.05A13.325,13.325,0,0,0,37.46,46.61Z"></path><path fill="#6d6d6d" d="M37.46,8.02v2.49H3.48V8.02a4.9,4.9,0,0,1,4.9-4.9H32.55A4.91,4.91,0,0,1,37.46,8.02Z"></path><path fill="#dfddde" d="M33.76 46.05v1.93H7.12V32.93H24.16a13.509 13.509 0 0 0 9.6 13.12zM19.75 40.4a4.695 4.695 0 1 0-1.38 3.3A4.672 4.672 0 0 0 19.75 40.4zM33.76 14.24v5.95a13.526 13.526 0 0 0-9.05 9.1H7.12V14.24zM19.75 21.83a4.695 4.695 0 1 0-1.38 3.31A4.648 4.648 0 0 0 19.75 21.83z"></path><path fill="#6d6d6d" d="M20.51,57.9v2.72H8.38a4.9,4.9,0,0,1-4.9-4.9V51.56H20.51v2.63a1.855,1.855,0,1,0,0,3.71Z"></path><path fill="#e07e7e" d="M18.37,18.53a4.648,4.648,0,1,1-3.3-1.38A4.648,4.648,0,0,1,18.37,18.53Zm-1.2,1.87a.606.606,0,0,0-1.21,0,.606.606,0,0,0,1.21,0Zm-3.14,0a.592.592,0,0,0-.61-.57.6.6,0,0,0-.61.57.592.592,0,0,0,.61.57A.586.586,0,0,0,14.03,20.4Z"></path><path fill="#1a7f75" d="M18.37,37.09a4.671,4.671,0,1,1-3.3-1.37A4.672,4.672,0,0,1,18.37,37.09Zm-1.2,1.87a.606.606,0,1,0-.61.58A.592.592,0,0,0,17.17,38.96Zm-3.14,0a.592.592,0,0,0-.61-.57.576.576,0,1,0,.61.57Z"></path><path fill="#231f20" d="M16.56 19.83a.592.592 0 0 1 .61.57.606.606 0 1 1-.61-.57zM16.56 38.39a.576.576 0 1 1-.6.57A.592.592 0 0 1 16.56 38.39z"></path><ellipse cx="13.42" cy="20.4" fill="#231f20" rx=".61" ry=".57"></ellipse><path fill="#231f20" d="M13.42,38.39a.576.576,0,1,1,0,1.15.576.576,0,1,1,0-1.15Z"></path><path fill="#303030" d="M23.53 5.69H16.972a1 1 0 1 0 0 2H23.53a1 1 0 0 0 0-2zM20.46 58.88a2.855 2.855 0 1 0-2.85-2.85A2.857 2.857 0 0 0 20.46 58.88zm0-3.71a.855.855 0 1 1 0 1.71.849.849 0 0 1-.85-.85A.858.858 0 0 1 20.46 55.17zM15.02 16.64a5.18 5.18 0 1 0 5.18 5.18A5.187 5.187 0 0 0 15.02 16.64zm0 9.36a4.18 4.18 0 1 1 4.18-4.18A4.191 4.191 0 0 1 15.02 26z"></path><path fill="#303030" d="M13.375 20.958a.573.573 0 1 0-.607-.572A.59.59 0 0 0 13.375 20.958zM16.517 19.814a.573.573 0 1 0 .608.572A.59.59 0 0 0 16.517 19.814zM15 21.6a2.018 2.018 0 0 0-2.059 1.968.5.5 0 0 0 1 0 1.063 1.063 0 0 1 2.118 0 .5.5 0 0 0 1 0A2.018 2.018 0 0 0 15 21.6zM15.02 35.2a5.18 5.18 0 1 0 5.18 5.18A5.187 5.187 0 0 0 15.02 35.2zm0 9.36a4.18 4.18 0 1 1 4.18-4.18A4.191 4.191 0 0 1 15.02 44.56z"></path><path fill="#303030" d="M13.375 39.52a.573.573 0 1 0-.607-.572A.59.59 0 0 0 13.375 39.52zM16.517 38.377a.573.573 0 1 0 .608.571A.59.59 0 0 0 16.517 38.377zM16.556 40.165a.5.5 0 0 0-.5.5 1.063 1.063 0 0 1-2.118 0 .5.5 0 0 0-1 0 2.061 2.061 0 0 0 4.118 0A.5.5 0 0 0 16.556 40.165z"></path><path fill="#303030" d="M8.33,61.6H32.5a5.907,5.907,0,0,0,5.91-5.9V47.74h.14a14.235,14.235,0,0,0,6.25-1.82L55.74,57.59a3.515,3.515,0,0,0,5.09-4.85L49.93,41.11a14.569,14.569,0,0,0-1.69-17.87h-.01a14.217,14.217,0,0,0-2.77-2.25c-.16-.1-.32-.19-.46-.27a14.629,14.629,0,0,0-6.45-1.93.66.66,0,0,0-.14-.01V8A5.913,5.913,0,0,0,32.5,2.1H8.33A5.911,5.911,0,0,0,2.43,8V55.7A5.9,5.9,0,0,0,8.33,61.6Zm51.04-7.48a1.51,1.51,0,0,1-2.18,2.09L46.66,44.97l2.19-2.09ZM37.57,20.76h.15a12.523,12.523,0,0,1,6.3,1.71,2.706,2.706,0,0,1,.37.21,12.129,12.129,0,0,1,2.4,1.95,12.542,12.542,0,0,1-.4,17.67,14.248,14.248,0,0,1-2.01,1.56,2.681,2.681,0,0,1-.39.23,12.492,12.492,0,0,1-6.1,1.64.956.956,0,0,0-.47-.14A12.163,12.163,0,0,1,34,45.08a12.526,12.526,0,0,1-5.4-3.33,12.345,12.345,0,0,1-3.35-8.67v-.02a11.7,11.7,0,0,1,.51-3.34,12.467,12.467,0,0,1,3.35-5.49,12.636,12.636,0,0,1,5.03-2.94A12.846,12.846,0,0,1,37.57,20.76ZM24.44,39.17a5.6,5.6,0,0,0,.27.55,14.836,14.836,0,0,0,.87,1.49l.3.42a14.617,14.617,0,0,0,1.24,1.49l.01.01a1.738,1.738,0,0,1,.13.15,13.921,13.921,0,0,0,1.46,1.32,6.5,6.5,0,0,0,.61.46c.08.06.16.12.24.17a5.716,5.716,0,0,0,.48.32,2.755,2.755,0,0,0,.29.17,5.793,5.793,0,0,0,.54.31c.05.03.11.06.17.09.25.13.5.26.76.37a.037.037,0,0,0,.03.01,8.934,8.934,0,0,0,.85.35h.02v.11H8.07V33.91H23.13c0,.03.01.06.01.08a.757.757,0,0,0,.01.15c.02.35.06.69.11,1.03.03.23.07.46.11.68.09.45.19.89.32,1.33A14.02,14.02,0,0,0,24.44,39.17ZM8.07,28.27V15.22H32.71v4.23a.355.355,0,0,0-.09.04c-.25.09-.49.18-.74.29-.19.08-.37.16-.56.26-.18.08-.35.17-.52.26a4.531,4.531,0,0,0-.48.27c-.21.12-.41.24-.6.37a3.506,3.506,0,0,0-.4.27c-.19.13-.37.26-.55.4s-.37.29-.54.44c-.22.18-.43.37-.64.57a13.725,13.725,0,0,0-1.31,1.44c-.18.22-.36.45-.52.68a.673.673,0,0,0-.07.11c-.15.2-.28.41-.41.62-.04.06-.07.12-.11.18a7.688,7.688,0,0,0-.39.69c-.01.03-.03.06-.04.09-.13.23-.24.47-.35.71-.02.03-.03.07-.05.1-.12.28-.23.56-.34.85a1.336,1.336,0,0,0-.07.18ZM4.43,8a3.905,3.905,0,0,1,3.9-3.9H32.5A3.907,3.907,0,0,1,36.41,8V9.49H4.43Zm0,3.49H36.41v7.16a.448.448,0,0,1-.11.01q-.465.045-.9.12-.345.045-.69.12V14.22a1,1,0,0,0-1-1H7.07a1,1,0,0,0-1,1V29.27a1,1,0,0,0,1,1H23.39a12.964,12.964,0,0,0-.24,1.64H7.07a1,1,0,0,0-1,1V47.96a1,1,0,0,0,1,1H33.71a.99.99,0,0,0,1-1v-.53a.235.235,0,0,1,.08.02.06.06,0,0,0,.04.01h.02v.01c.21.04.42.08.62.11a.448.448,0,0,0,.11.01c.28.04.56.08.83.1v2.85H4.43Zm0,41.05H36.41V55.7a3.907,3.907,0,0,1-3.91,3.9H8.33a3.905,3.905,0,0,1-3.9-3.9Z"></path><path fill="#303030" d="M32.55 32.726v-.01c0-.01-.01-.02-.01-.03s-.01-.03-.02-.04l-1.15-3.09a1 1 0 0 0-.92-.66.978.978 0 0 0-.94.63l-1.27 3.12c-.01.01-.01.03-.02.04v.01l-1.26 3.08a.99.99 0 0 0 .55 1.3.971.971 0 0 0 .37.07 1 1 0 0 0 .93-.62l.52-1.26v0h2.038v0l.45 1.2a.985.985 0 0 0 .93.65 1.03 1.03 0 0 0 .35-.06 1 1 0 0 0 .59-1.29zm-1.91.13h-.05l-.47.01-.32.01.17-.38.29-.67.43.86.09.17zM37.55 37.04c.13 0 .25-.01.37-.02a3.6 3.6 0 0 0 .73-.13 3.712 3.712 0 0 0 .9-.37l.63.52a1 1 0 1 0 1.28-1.54l-.42-.35a3.118 3.118 0 0 0 .3-.53 3.673 3.673 0 0 0 .3-.92 3.861 3.861 0 0 0 .09-.84 4.18 4.18 0 1 0-4.18 4.18zM42.966 34.732a1 1 0 0 0 0 2h3.4a1 1 0 1 0 0-2H45.6V31.025h.764a1 1 0 0 0 0-2h-3.4a1 1 0 0 0 0 2H43.6v3.707zM52.67 23.37a.5.5 0 0 0 .35-.15.5.5 0 0 0 .14-.36.46.46 0 0 0-.14-.35.537.537 0 0 0-.35-.14.508.508 0 0 0-.36.15.5.5 0 0 0 0 .7A.508.508 0 0 0 52.67 23.37zM58.28 24.11a.507.507 0 0 0 .13-.02.5.5 0 0 0 .37-.47.675.675 0 0 0-.02-.14.49.49 0 0 0-.48-.37.585.585 0 0 0-.13.02.5.5 0 0 0 .13.98zM50.87 20.98a.475.475 0 0 0 .25-.07.5.5 0 0 0 .25-.44.475.475 0 0 0-.07-.25.538.538 0 0 0-.44-.24.475.475 0 0 0-.25.07.493.493 0 0 0-.18.68A.511.511 0 0 0 50.87 20.98zM55.31 24.58h.02a.5.5 0 0 0 .5-.48v-.02a.5.5 0 0 0-.48-.5h-.03a.494.494 0 0 0-.49.47A.511.511 0 0 0 55.31 24.58zM48.47 14.89a.506.506 0 0 0 .5.44h.06a.506.506 0 0 0 .44-.5v-.06a.5.5 0 0 0-.49-.44c-.02 0-.05.01-.07.01A.5.5 0 0 0 48.47 14.89zM42.51 11.1h.03a.5.5 0 0 0 .47-.49v-.04a.484.484 0 0 0-.48-.47h-.04a.5.5 0 0 0 .02 1zM45.42 11.26a.22.22 0 0 0 .08.01.494.494 0 0 0 .49-.41.277.277 0 0 0 .01-.09.494.494 0 0 0-.41-.49.277.277 0 0 0-.09-.01.5.5 0 0 0-.08.99zM49.15 17.91a.492.492 0 0 0 .47.34.44.44 0 0 0 .16-.02.492.492 0 0 0 .34-.47.453.453 0 0 0-.03-.16.492.492 0 0 0-.47-.35.453.453 0 0 0-.16.03A.5.5 0 0 0 49.15 17.91zM48.17 12.48a.5.5 0 0 0 .32-.11.494.494 0 0 0 .08-.7.528.528 0 0 0-.4-.19.51.51 0 0 0-.31.11.494.494 0 0 0-.07.7A.46.46 0 0 0 48.17 12.48z"></path><path fill="#fff" d="M37.55,35.036a2.18,2.18,0,1,1,2.18-2.18,2.139,2.139,0,0,1-.24,1h-.01v0l-.3-.25a1,1,0,0,0-1.408.131.987.987,0,0,0,.02,1.271l-.02,0A.784.784,0,0,1,37.55,35.036Z"></path></g></svg>